<?xml version="1.0" standalone="no"?>
<!DOCTYPE svg PUBLIC "-//W3C//DTD SVG 20010904//EN"
 "http://www.w3.org/TR/2001/REC-SVG-20010904/DTD/svg10.dtd">
<svg version="1.0" xmlns="http://www.w3.org/2000/svg"
 width="96.000000pt" height="96.000000pt" viewBox="0 0 96.000000 96.000000"
 preserveAspectRatio="xMidYMid meet">
<metadata>
Created by potrace 1.14, written by Peter Selinger 2001-2017
</metadata>
<g transform="translate(0.000000,96.000000) scale(0.100000,-0.100000)"
fill="#000000" stroke="none">
<path d="M367 812 c-21 -23 -21 -46 -2 -75 12 -20 13 -26 0 -50 -8 -16 -10
-29 -4 -33 8 -5 40 54 35 66 -1 3 -8 18 -16 34 -13 26 -13 29 8 46 12 10 22
21 22 24 0 13 -28 5 -43 -12z"/>
<path d="M452 817 c-13 -15 -11 -31 8 -70 11 -22 11 -33 2 -48 -14 -22 -16
-49 -4 -49 5 0 15 18 22 40 11 34 11 44 -3 72 -14 29 -15 34 -2 44 8 6 15 14
15 18 0 11 -27 6 -38 -7z"/>
<path d="M537 808 c-2 -7 3 -28 12 -46 14 -30 14 -35 -4 -67 -23 -44 -14 -56
14 -17 22 32 28 77 11 87 -5 3 -10 17 -10 31 0 25 -15 33 -23 12z"/>
<path d="M797 707 c-18 -18 -40 -47 -49 -65 -14 -27 -22 -32 -39 -27 -11 4
-125 7 -252 7 -225 0 -234 -1 -300 -26 -88 -33 -127 -61 -127 -90 0 -26 78
-182 118 -236 32 -42 46 -55 93 -80 20 -11 50 -33 67 -50 30 -30 36 -31 135
-33 58 -1 115 14 139 37 13 13 35 26 49 29 39 10 104 61 137 109 33 48 68 149
76 220 5 40 2 51 -15 67 -23 21 -19 36 27 97 27 36 23 74 -8 74 -11 0 -34 -15
-51 -33z"/>
</g>
</svg>
