<svg width="289" height="89" viewBox="0 0 289 89" fill="none" xmlns="http://www.w3.org/2000/svg">
<path d="M13.4629 81.6387C14.0983 80.3281 14.833 78.8984 15.667 77.3496C16.501 75.7611 17.3945 74.1725 18.3477 72.584C19.3008 70.9557 20.2936 69.3473 21.3262 67.7588C22.3984 66.1702 23.5104 64.6611 24.6621 63.2314C25.8138 61.8415 26.9655 60.8486 28.1172 60.2529C29.3086 59.6175 30.4206 59.2998 31.4531 59.2998C33.5182 59.2998 35.0472 60.0544 36.04 61.5635C37.0329 63.0726 37.5293 64.9391 37.5293 67.1631C37.5293 67.6794 37.4896 68.3148 37.4102 69.0693C37.3704 69.7842 37.3109 70.5586 37.2314 71.3926C37.1917 72.2266 37.1322 73.0804 37.0527 73.9541C37.013 74.7881 36.9932 75.5824 36.9932 76.3369C36.9932 77.29 37.0329 78.2035 37.1123 79.0771C37.2314 79.9508 37.43 80.7253 37.708 81.4004C37.986 82.0358 38.3831 82.5521 38.8994 82.9492C39.4157 83.3066 40.0908 83.4854 40.9248 83.4854C42.4339 83.4854 43.9033 82.9095 45.333 81.7578C46.7627 80.5664 48.0732 79.1764 49.2646 77.5879C50.4958 75.9596 51.5482 74.3115 52.4219 72.6436C53.3353 70.9756 54.0104 69.6253 54.4473 68.5928C54.4473 68.5928 56.4746 64 55.4746 67C55.8717 66.7617 56.0954 67.2227 56.5322 67.2227C57.2074 67.2227 57.7435 67.4808 58.1406 67.9971C58.5775 68.4736 58.7959 68.9899 58.7959 69.5459C58.7959 69.8239 58.7363 70.1019 58.6172 70.3799C58.4583 70.6976 58.1406 71.3529 57.6641 72.3457C57.1875 73.3385 56.5521 74.4902 55.7578 75.8008C55.0033 77.0716 54.1097 78.4417 53.0771 79.9111C52.0446 81.3408 50.8929 82.6514 49.6221 83.8428C48.3909 85.0342 47.0407 86.027 45.5713 86.8213C44.1416 87.6156 42.6325 88.0127 41.0439 88.0127C39.2568 88.0127 37.8073 87.6751 36.6953 87C35.5833 86.2852 34.7096 85.3717 34.0742 84.2598C33.4388 83.1081 33.002 81.8571 32.7637 80.5068C32.5651 79.1169 32.4658 77.7269 32.4658 76.3369C32.4658 75.7412 32.4857 75.0661 32.5254 74.3115C32.6048 73.557 32.6842 72.7627 32.7637 71.9287C32.8828 71.0947 32.9622 70.2607 33.002 69.4268C33.0814 68.5928 33.1211 67.7985 33.1211 67.0439C33.1211 65.7731 32.9225 64.9193 32.5254 64.4824C32.1283 64.0059 31.7708 63.7676 31.4531 63.7676C30.8177 63.7676 30.083 64.1449 29.249 64.8994C28.4548 65.6143 27.6009 66.5674 26.6875 67.7588C25.8138 68.9502 24.9004 70.3005 23.9473 71.8096C23.0339 73.279 22.1602 74.7484 21.3262 76.2178C20.5319 77.6872 19.7773 79.097 19.0625 80.4473C18.3874 81.7578 17.8512 82.8499 17.4541 83.7236C16.6598 85.3916 15.8656 86.5036 15.0713 87.0596C14.277 87.6553 13.4629 87.9531 12.6289 87.9531C11.4772 87.9531 10.5439 87.6156 9.8291 86.9404C9.15397 86.2256 8.81641 85.2327 8.81641 83.9619C8.81641 83.6839 8.85612 83.1478 8.93555 82.3535C9.01497 81.5195 9.11426 80.5465 9.2334 79.4346C9.35254 78.2829 9.47168 77.0518 9.59082 75.7412C9.70996 74.4307 9.8291 73.14 9.94824 71.8691C10.0674 70.5586 10.1667 69.3473 10.2461 68.2354C10.3255 67.1234 10.3652 66.1901 10.3652 65.4355C10.3652 64.4427 10.3255 63.4896 10.2461 62.5762C10.1667 61.6628 10.0078 61.1068 9.76953 60.9082C9.41211 61.0273 8.77669 61.7819 7.86328 63.1719C6.94987 64.5221 5.77832 66.9248 4.34863 70.3799C4.15006 70.8167 3.85221 71.1543 3.45508 71.3926C3.05794 71.6309 2.64095 71.75 2.2041 71.75C1.52897 71.75 0.992839 71.5316 0.595703 71.0947C0.198568 70.6182 0 70.082 0 69.4863C0 69.2083 0.0595703 68.9105 0.178711 68.5928C1.96582 64.3434 3.63379 61.2259 5.18262 59.2402C6.77116 57.2148 8.33984 56.2021 9.88867 56.2021C10.8021 56.2021 11.5765 56.4404 12.2119 56.917C12.8473 57.3538 13.3438 57.9495 13.7012 58.7041C14.0983 59.4587 14.3763 60.2926 14.5352 61.2061C14.7337 62.1195 14.833 63.0527 14.833 64.0059C14.833 64.7207 14.7734 65.8327 14.6543 67.3418C14.5749 68.8509 14.4557 70.4792 14.2969 72.2266C14.138 73.9342 13.9792 75.6419 13.8203 77.3496C13.7012 79.0573 13.582 80.487 13.4629 81.6387Z" fill="#522010"/>
<path d="M74.3438 80.3281C72.9538 82.5918 71.3255 84.3789 69.459 85.6895C67.6322 87 65.7855 87.6553 63.9189 87.6553C62.4098 87.6553 61.0596 87.3773 59.8682 86.8213C58.6768 86.2653 57.6442 85.4909 56.7705 84.498C55.8968 83.4655 55.2217 82.2344 54.7451 80.8047C54.3083 79.375 54.0898 77.7666 54.0898 75.9795C54.0898 73.1995 54.348 70.7373 54.8643 68.5928C55.4202 66.4482 56.0159 64.6611 56.6514 63.2314C57.2868 61.762 57.8825 60.6501 58.4385 59.8955C58.9945 59.1409 59.2725 58.7637 59.2725 58.7637C59.471 58.5254 59.7093 58.3467 59.9873 58.2275C60.305 58.1084 60.6227 58.0488 60.9404 58.0488C61.5758 58.0488 62.0921 58.2871 62.4893 58.7637C62.9261 59.2005 63.1445 59.7168 63.1445 60.3125C63.1445 60.5508 63.085 60.7891 62.9658 61.0273C62.8864 61.2656 62.7871 61.5039 62.668 61.7422C62.4694 62.0996 62.1517 62.6556 61.7148 63.4102C61.278 64.125 60.8213 65.0781 60.3447 66.2695C59.8682 67.4609 59.4512 68.8708 59.0938 70.499C58.7363 72.0876 58.5576 73.9144 58.5576 75.9795C58.5576 78.3226 59.0143 80.1097 59.9277 81.3408C60.8809 82.5322 62.2113 83.1279 63.9189 83.1279C64.6338 83.1279 65.4479 82.9095 66.3613 82.4727C67.3145 81.9961 68.2279 81.2812 69.1016 80.3281C70.015 79.375 70.8092 78.1637 71.4844 76.6943C72.1595 75.2249 72.5964 73.4974 72.7949 71.5117L73.6885 61.2656C73.7679 60.6699 74.026 60.1735 74.4629 59.7764C74.8997 59.3792 75.416 59.1807 76.0117 59.1807C76.6869 59.1807 77.223 59.4388 77.6201 59.9551C78.0173 60.4316 78.2158 60.9876 78.2158 61.623L77.4414 71.5117C77.362 72.3457 77.3818 73.4378 77.501 74.7881C77.6598 76.1383 77.9577 77.4688 78.3945 78.7793C78.8314 80.0898 79.4867 81.2217 80.3604 82.1748C81.234 83.0882 82.3857 83.5449 83.8154 83.5449C84.848 83.5449 85.8607 83.2868 86.8535 82.7705C87.8464 82.2145 88.7995 81.4997 89.7129 80.626C90.6263 79.7523 91.4603 78.7793 92.2148 77.707C93.0091 76.5951 93.724 75.4831 94.3594 74.3711C95.0345 73.2591 95.6104 72.2067 96.0869 71.2139C96.5635 70.1813 96.9606 69.3076 97.2783 68.5928C97.4769 68.1559 99.1846 65.1377 99.542 64.8994C99.8994 64.6611 98.8669 67.2227 99.3037 67.2227C100.019 67.2227 100.575 67.4609 100.972 67.9375C101.369 68.4141 101.567 68.9303 101.567 69.4863C101.567 69.804 101.508 70.1019 101.389 70.3799C101.23 70.6976 100.912 71.3727 100.436 72.4053C99.9987 73.3981 99.403 74.5498 98.6484 75.8604C97.9336 77.1312 97.0599 78.4814 96.0273 79.9111C94.9948 81.3408 93.8431 82.6712 92.5723 83.9023C91.3014 85.0938 89.9115 86.0866 88.4023 86.8809C86.9329 87.6354 85.3444 88.0127 83.6367 88.0127C81.2936 88.0127 79.3477 87.3574 77.7988 86.0469C76.25 84.6966 75.0983 82.7904 74.3438 80.3281Z" fill="#522010"/>
<path d="M131.233 70.499C130.797 71.4124 130.241 72.5046 129.565 73.7754C128.93 75.0065 128.195 76.2972 127.361 77.6475C126.527 78.9977 125.594 80.348 124.562 81.6982C123.529 83.0088 122.397 84.2002 121.166 85.2725C119.975 86.305 118.684 87.139 117.294 87.7744C115.944 88.4495 114.494 88.7871 112.945 88.7871C110.562 88.7871 108.517 88.0524 106.81 86.583C105.102 85.1136 103.652 83.1875 102.461 80.8047C101.27 78.4219 100.297 75.7214 99.542 72.7031C98.8271 69.6452 98.2712 66.5475 97.874 63.4102C97.4769 60.2331 97.1989 57.1553 97.04 54.1768C96.9209 51.1982 96.8613 48.5573 96.8613 46.2539C96.8613 42.918 96.9606 39.4629 97.1592 35.8887C97.3975 32.3145 97.7549 28.8197 98.2314 25.4043C98.708 21.9889 99.3037 18.7523 100.019 15.6943C100.773 12.6364 101.647 9.95573 102.64 7.65234C103.672 5.34896 104.844 3.52214 106.154 2.17188C107.465 0.821615 108.954 0.146484 110.622 0.146484C111.933 0.146484 113.104 0.464193 114.137 1.09961C115.209 1.69531 116.103 2.68815 116.817 4.07812C117.532 5.4681 118.088 7.27507 118.485 9.49902C118.882 11.723 119.081 14.4434 119.081 17.6602C119.081 21.6315 118.664 25.7419 117.83 29.9912C116.996 34.2008 115.864 38.4502 114.435 42.7393C113.005 47.0283 111.317 51.3174 109.371 55.6064C107.425 59.8558 105.34 64.0059 103.116 68.0566C104.109 73.1003 105.439 77.0716 107.107 79.9707C108.775 82.8301 110.781 84.2598 113.124 84.2598C114.713 84.2598 116.242 83.6442 117.711 82.4131C119.18 81.1423 120.531 79.653 121.762 77.9453C122.993 76.2376 124.065 74.5101 124.979 72.7627C125.932 70.9756 126.958 69.5723 127.475 68.5C127.673 68.1029 128.851 66.3548 129.208 66.1562C129.565 65.918 128.771 67.2227 129.208 67.2227C129.883 67.2227 130.419 67.4609 130.816 67.9375C131.253 68.4141 131.472 68.9502 131.472 69.5459C131.472 69.7842 131.392 70.1019 131.233 70.499ZM101.389 46.5518C101.389 49.0934 101.448 51.5358 101.567 53.8789C101.687 56.222 101.845 58.4658 102.044 60.6104C103.712 57.3936 105.3 53.9782 106.81 50.3643C108.319 46.7106 109.649 43.0371 110.801 39.3438C111.952 35.6107 112.866 31.9173 113.541 28.2637C114.256 24.5703 114.613 21.0557 114.613 17.7197C114.613 13.0335 114.236 9.67773 113.481 7.65234C112.727 5.62695 111.714 4.61426 110.443 4.61426C109.609 4.61426 108.795 5.1901 108.001 6.3418C107.246 7.49349 106.532 9.06217 105.856 11.0479C105.181 13.0335 104.566 15.3766 104.01 18.0771C103.454 20.7777 102.977 23.6768 102.58 26.7744C102.223 29.8721 101.925 33.1087 101.687 36.4844C101.488 39.86 101.389 43.2158 101.389 46.5518Z" fill="#522010"/>
<path d="M173.29 70.3799C173.131 70.6976 172.794 71.3727 172.277 72.4053C171.801 73.3981 171.165 74.5498 170.371 75.8604C169.617 77.1709 168.723 78.541 167.69 79.9707C166.658 81.4004 165.506 82.7109 164.235 83.9023C162.965 85.0938 161.594 86.0866 160.125 86.8809C158.656 87.6354 157.107 88.0127 155.479 88.0127C153.175 88.0127 151.229 87.278 149.641 85.8086C148.092 84.3392 146.96 82.4925 146.245 80.2686C144.895 82.5322 143.286 84.3392 141.42 85.6895C139.553 87 137.687 87.6553 135.82 87.6553C134.351 87.6553 133.021 87.3971 131.829 86.8809C130.638 86.3249 129.625 85.5703 128.791 84.6172C127.957 83.6244 127.302 82.4727 126.825 81.1621C126.388 79.8516 126.17 78.4219 126.17 76.873C126.17 73.7754 126.686 71.055 127.719 68.7119C128.791 66.3291 130.141 64.3434 131.77 62.7549C133.398 61.1663 135.185 59.9749 137.131 59.1807C139.117 58.3864 141.023 57.9893 142.85 57.9893C144.081 57.9893 145.213 58.168 146.245 58.5254C147.278 58.8431 148.151 59.2005 148.866 59.5977C149.621 59.9948 150.197 60.3721 150.594 60.7295C150.991 61.0472 151.209 61.2259 151.249 61.2656C151.686 61.7819 151.904 62.318 151.904 62.874C151.904 63.4697 151.686 64.0059 151.249 64.4824C150.812 64.9193 150.296 65.1377 149.7 65.1377C149.065 65.1377 148.529 64.9193 148.092 64.4824C148.012 64.403 147.834 64.264 147.556 64.0654C147.278 63.8271 146.9 63.5889 146.424 63.3506C145.947 63.1123 145.371 62.9137 144.696 62.7549C144.061 62.5563 143.326 62.457 142.492 62.457C141.261 62.457 139.951 62.735 138.561 63.291C137.171 63.847 135.9 64.7207 134.748 65.9121C133.596 67.0638 132.623 68.5332 131.829 70.3203C131.075 72.0677 130.697 74.1527 130.697 76.5752C130.697 77.3298 130.777 78.1042 130.936 78.8984C131.094 79.653 131.372 80.348 131.77 80.9834C132.167 81.6188 132.703 82.1351 133.378 82.5322C134.053 82.9294 134.887 83.1279 135.88 83.1279C136.595 83.1279 137.409 82.8896 138.322 82.4131C139.275 81.9365 140.169 81.2018 141.003 80.209C141.877 79.2161 142.651 77.9652 143.326 76.4561C144.041 74.9469 144.537 73.1598 144.815 71.0947C144.895 70.5387 145.153 70.082 145.59 69.7246C146.027 69.3275 146.543 69.1289 147.139 69.1289C147.695 69.1289 148.171 69.3473 148.568 69.7842C149.005 70.221 149.243 70.7174 149.283 71.2734C149.323 72.028 149.402 73.1003 149.521 74.4902C149.641 75.8405 149.899 77.1908 150.296 78.541C150.733 79.8913 151.368 81.0628 152.202 82.0557C153.036 83.0485 154.188 83.5449 155.657 83.5449C156.61 83.5449 157.544 83.2868 158.457 82.7705C159.41 82.2542 160.324 81.5791 161.197 80.7451C162.111 79.8714 162.965 78.8984 163.759 77.8262C164.593 76.7142 165.347 75.6022 166.022 74.4902C166.698 73.3783 167.293 72.306 167.81 71.2734C168.326 70.2409 168.763 69.3473 169.12 68.5928C169.319 68.1559 169.597 67.8184 169.954 67.5801C170.351 67.3418 170.768 67.2227 171.205 67.2227C171.88 67.2227 172.416 67.4808 172.813 67.9971C173.25 68.4736 173.469 68.9899 173.469 69.5459C173.469 69.8239 173.409 70.1019 173.29 70.3799Z" fill="#522010"/>
<path d="M182.94 81.6982C183.536 80.5068 184.291 79.0374 185.204 77.29C186.157 75.5029 187.13 73.7158 188.123 71.9287C189.156 70.1416 190.148 68.4538 191.102 66.8652C192.094 65.2767 192.928 64.0654 193.604 63.2314C194.755 61.8415 195.947 60.8486 197.178 60.2529C198.409 59.6572 199.541 59.3594 200.573 59.3594C201.606 59.3594 202.479 59.5778 203.194 60.0146C203.949 60.4515 204.564 61.0472 205.041 61.8018C205.518 62.5166 205.875 63.3704 206.113 64.3633C206.352 65.3164 206.471 66.349 206.471 67.4609C206.471 68.0964 206.431 68.9303 206.352 69.9629C206.312 70.9954 206.252 72.1074 206.173 73.2988C206.133 74.4902 206.074 75.7214 205.994 76.9922C205.954 78.263 205.915 79.4544 205.875 80.5664C206.471 79.375 207.146 78.0645 207.9 76.6348C208.655 75.1654 209.41 73.7158 210.164 72.2861C210.958 70.8564 211.713 69.526 212.428 68.2949C213.143 67.0241 213.798 65.9915 214.394 65.1973C216.101 62.8542 217.69 61.2855 219.159 60.4912C220.668 59.6969 221.999 59.2998 223.15 59.2998C224.501 59.2998 225.613 59.5579 226.486 60.0742C227.36 60.5508 228.035 61.1862 228.512 61.9805C229.028 62.735 229.385 63.5889 229.584 64.542C229.783 65.4951 229.882 66.4085 229.882 67.2822C229.882 68.6325 229.783 70.0423 229.584 71.5117C229.385 72.9811 229.286 74.7285 229.286 76.7539C229.286 77.5879 229.326 78.4219 229.405 79.2559C229.485 80.0898 229.644 80.8245 229.882 81.46C230.16 82.0954 230.577 82.6117 231.133 83.0088C231.689 83.4059 232.443 83.6045 233.396 83.6045C234.429 83.6045 235.442 83.3464 236.435 82.8301C237.427 82.2741 238.381 81.5592 239.294 80.6855C240.207 79.8119 241.061 78.819 241.855 77.707C242.689 76.5951 243.444 75.4831 244.119 74.3711C244.794 73.2591 245.39 72.2067 245.906 71.2139C246.423 70.1813 246.84 69.3076 247.157 68.5928C247.356 68.1559 247.634 67.8184 247.991 67.5801C248.349 67.3418 248.746 67.2227 249.183 67.2227C249.858 67.2227 250.394 67.4808 250.791 67.9971C251.228 68.4736 251.446 68.9899 251.446 69.5459C251.446 69.8239 251.387 70.1019 251.268 70.3799C251.109 70.6976 250.791 71.3727 250.314 72.4053C249.838 73.3981 249.202 74.5498 248.408 75.8604C247.614 77.1312 246.681 78.4814 245.608 79.9111C244.576 81.3408 243.424 82.6712 242.153 83.9023C240.882 85.0938 239.512 86.0866 238.043 86.8809C236.574 87.6354 235.025 88.0127 233.396 88.0127C231.649 88.0127 230.219 87.695 229.107 87.0596C228.035 86.4639 227.161 85.6497 226.486 84.6172C225.851 83.5846 225.414 82.3932 225.176 81.043C224.938 79.6927 224.818 78.2829 224.818 76.8135C224.818 74.8675 224.918 73.0804 225.116 71.4521C225.315 69.7842 225.414 68.4935 225.414 67.5801C225.414 66.5872 225.315 65.8327 225.116 65.3164C224.957 64.8001 224.739 64.4427 224.461 64.2441C224.223 64.0059 223.984 63.8867 223.746 63.8867C223.508 63.847 223.329 63.8271 223.21 63.8271C222.257 63.8271 221.244 64.3633 220.172 65.4355C219.139 66.4681 218.067 67.8581 216.955 69.6055C215.843 71.3529 214.691 73.3385 213.5 75.5625C212.348 77.7865 211.177 80.0501 209.985 82.3535C209.31 83.6244 208.734 84.6768 208.258 85.5107C207.821 86.3447 207.384 87 206.947 87.4766C206.55 87.9531 206.153 88.2907 205.756 88.4893C205.359 88.6878 204.922 88.7871 204.445 88.7871C203.413 88.7871 202.618 88.4297 202.062 87.7148C201.546 87 201.288 86.0667 201.288 84.915C201.288 84.3193 201.308 83.5251 201.348 82.5322C201.387 81.5394 201.427 80.4473 201.467 79.2559C201.507 78.0645 201.566 76.8333 201.646 75.5625C201.725 74.2917 201.785 73.0804 201.824 71.9287C201.864 70.7373 201.904 69.6849 201.943 68.7715C201.983 67.8581 202.003 67.1631 202.003 66.6865C202.003 65.654 201.824 64.9193 201.467 64.4824C201.109 64.0059 200.692 63.7676 200.216 63.7676C199.779 63.7676 199.283 63.9264 198.727 64.2441C198.21 64.5619 197.595 65.1774 196.88 66.0908C196.324 66.8057 195.609 67.8581 194.735 69.248C193.901 70.5983 193.008 72.1074 192.055 73.7754C191.102 75.4434 190.148 77.151 189.195 78.8984C188.282 80.6458 187.488 82.2145 186.812 83.6045C185.979 85.2725 185.145 86.4043 184.311 87C183.477 87.6354 182.662 87.9531 181.868 87.9531C180.716 87.9531 179.863 87.6156 179.307 86.9404C178.751 86.2256 178.473 85.2923 178.473 84.1406C178.473 84.0215 178.493 83.3066 178.532 81.9961C178.612 80.6855 178.691 79.097 178.771 77.2305C178.85 75.3242 178.929 73.2988 179.009 71.1543C179.128 69.0098 179.227 67.0042 179.307 65.1377C179.346 64.1449 179.307 63.2314 179.188 62.3975C179.068 61.5635 178.91 61.0671 178.711 60.9082C178.393 60.9876 177.758 61.7223 176.805 63.1123C175.891 64.5023 174.72 66.9248 173.29 70.3799C173.091 70.8167 172.794 71.1543 172.396 71.3926C171.999 71.6309 171.582 71.75 171.146 71.75C170.47 71.75 169.934 71.5316 169.537 71.0947C169.14 70.6182 168.941 70.082 168.941 69.4863C168.941 69.2083 169.001 68.9105 169.12 68.5928C170.907 64.3434 172.615 61.2259 174.243 59.2402C175.871 57.2148 177.46 56.2021 179.009 56.2021C179.922 56.2021 180.677 56.4206 181.272 56.8574C181.908 57.2546 182.404 57.7907 182.762 58.4658C183.119 59.1012 183.377 59.8359 183.536 60.6699C183.695 61.5039 183.774 62.318 183.774 63.1123C183.774 66.6468 183.675 69.8835 183.477 72.8223C183.318 75.7611 183.139 78.7197 182.94 81.6982Z" fill="#522010"/>
<path d="M282.866 33.4746L282.868 33.4735C284.602 31.9867 285.924 30.1821 286.832 28.0634C287.738 25.9515 288.191 23.7811 288.191 21.5547C288.191 18.9198 287.601 16.3555 286.424 13.8649C285.239 11.3581 283.33 9.13831 280.713 7.20207C278.115 5.2338 274.753 3.67229 270.638 2.5084C266.512 1.34111 261.505 0.761328 255.624 0.761328C251.595 0.761328 247.897 1.18039 244.532 2.02152C241.197 2.83515 238.324 4.00411 235.92 5.53374C233.514 7.06505 231.632 8.94394 230.284 11.172L230.284 11.1731C228.958 13.3825 228.298 15.8784 228.298 18.6515C228.298 20.6284 228.642 22.4869 229.331 24.2241L229.331 24.2241L229.334 24.2303C230.05 25.9391 231.058 27.4299 232.355 28.6999L232.358 28.7024C233.684 29.9733 235.283 30.9778 237.148 31.7186L237.148 31.7186L237.154 31.7208C239.054 32.4368 241.18 32.7916 243.527 32.7916C244.303 32.7916 245.235 32.7087 246.321 32.5459C247.438 32.3823 248.49 32.1502 249.476 31.849L249.476 31.849L249.482 31.8472C250.499 31.5173 251.375 31.1154 252.106 30.6378C252.859 30.1452 253.313 29.5265 253.313 28.7723C253.313 28.2274 253.117 27.7658 252.715 27.4251C252.359 27.0737 251.925 26.8901 251.43 26.8901C251.067 26.8901 250.731 26.9903 250.431 27.1901C249.526 27.7845 248.474 28.2405 247.27 28.5546L247.268 28.5551C246.088 28.8696 244.869 29.0272 243.608 29.0272C242.003 29.0272 240.494 28.8037 239.08 28.359C237.696 27.8885 236.472 27.2108 235.406 26.3269C234.37 25.4461 233.54 24.3708 232.916 23.0969C232.323 21.8339 232.023 20.3815 232.023 18.7321C232.023 16.5095 232.584 14.533 233.701 12.7922C234.823 11.0432 236.407 9.56079 238.463 8.34822L238.464 8.34753C240.55 7.10682 243.04 6.16445 245.941 5.52569L245.944 5.52516C248.871 4.85983 252.111 4.52581 255.664 4.52581C257.639 4.52581 259.723 4.64593 261.916 4.88662L261.917 4.88667C264.132 5.1269 266.307 5.5139 268.442 6.0476C270.573 6.5803 272.609 7.28585 274.552 8.16406C276.486 9.0384 278.177 10.1092 279.627 11.3749L279.627 11.375L279.633 11.3793C281.103 12.6134 282.27 14.0689 283.135 15.7474C283.993 17.4111 284.427 19.3304 284.427 21.5143C284.427 23.5951 284.045 25.3952 283.293 26.9244L283.292 26.9266C282.559 28.4462 281.563 29.7958 280.304 30.9766C279.036 32.1649 277.568 33.2236 275.897 34.1518C274.213 35.0876 272.448 35.9703 270.601 36.7998L270.6 36.8005C268.774 37.6327 266.922 38.4516 265.042 39.257C263.149 40.0686 261.362 40.962 259.682 41.9372L259.68 41.9385C258.02 42.9183 256.521 44.0353 255.184 45.2899C253.832 46.532 252.783 47.9958 252.038 49.6788L252.034 49.6881L252.03 49.6976C251.938 49.9436 251.887 50.1871 251.887 50.4253C251.887 50.8931 252.056 51.32 252.371 51.6978L252.381 51.71L252.393 51.7212C252.756 52.0846 253.209 52.2672 253.729 52.2672C254.12 52.2672 254.475 52.1767 254.778 51.9779C255.08 51.7791 255.305 51.4884 255.461 51.1294L255.461 51.1294L255.464 51.1221C255.979 49.8599 256.806 48.7202 257.953 47.7034C259.116 46.6721 260.468 45.704 262.011 44.7999C263.558 43.8926 265.241 43.0244 267.059 42.1955C268.888 41.3619 270.73 40.5148 272.586 39.6543L272.589 39.6525C274.451 38.7621 276.259 37.8176 278.014 36.819C279.805 35.8144 281.423 34.6998 282.866 33.4746ZM253.084 62.7913C253.79 62.7913 254.392 62.5427 254.864 62.0438C255.362 61.572 255.611 60.9698 255.611 60.2639C255.611 59.5581 255.362 58.9559 254.864 58.4841C254.392 57.9851 253.79 57.7365 253.084 57.7365C252.374 57.7365 251.761 57.9873 251.264 58.4842C250.789 58.9589 250.556 59.5615 250.556 60.2639C250.556 60.9664 250.789 61.5689 251.264 62.0437C251.761 62.5406 252.374 62.7913 253.084 62.7913Z" fill="#522010" stroke="#522010" stroke-width="0.7"/>
</svg>
